# xmcd CD database file
#
# Track frame offsets:
#	150
#	15770
#	30975
#	46264
#	60583
#	78249
#	96388
#	113841
#	130425
#	141520
#	157565
#	166974
#	186099
#	200154
#	215099
#	229952
#	246079
#	268394
#	300127
#
# Disc length: 4195 seconds
#
# Revision: 5
# Processed by: cddbd v1.5.2PL0 Copyright (c) Steve Scherf et al.
# Submitted via: CDex 1.70beta2
#
DISCID=fe106113
DTITLE=Звери - Голод
DYEAR=2004
DGENRE=Rock
TTITLE0=Капканы
TTITLE1=Просто такая сильная любовь
TTITLE2=Кольцевая
TTITLE3=120
TTITLE4=Маленькая 'с'
TTITLE5=Камикадзе
TTITLE6=Пингвины
TTITLE7=Дожди - пистолеты
TTITLE8=Для тебя
TTITLE9=Трамвай
TTITLE10=Быть добрее
TTITLE11=Фабрика грёз (посвящается Ф. Ницше)
TTITLE12=Герои (танцевальный микс)
TTITLE13=Дожди - пистолеты (дуэт с Т. Булановой)
TTITLE14=Для тебя (концерт в Челябинске)
TTITLE15=Просто такая сильная любовь (концерт 20.12.03 г., программа 'Воздух')
TTITLE16=Дожди - пистолеты (концерт в Ялта)
TTITLE17=Маленькая 'с' (концерт в Челябинске)
TTITLE18=data track
EXTD=CD LAND RECORDS, 2004, WWW.CDLAND.RU, +7-095-953-33-06. POSTED BY - =KADOSH=_ YEAR: 2004
EXTT0=
EXTT1=
EXTT2=
EXTT3=
EXTT4=
EXTT5=
EXTT6=
EXTT7=
EXTT8=
EXTT9=
EXTT10=
EXTT11=
EXTT12=
EXTT13=
EXTT14=
EXTT15=
EXTT16=
EXTT17=
EXTT18=
PLAYORDER=
